<?xml version="1.0" encoding="UTF-8" standalone="no"?>
<svg
   xmlns:dc="http://purl.org/dc/elements/1.1/"
   xmlns:cc="http://creativecommons.org/ns#"
   xmlns:rdf="http://www.w3.org/1999/02/22-rdf-syntax-ns#"
   xmlns:svg="http://www.w3.org/2000/svg"
   xmlns="http://www.w3.org/2000/svg"
   viewBox="0 0 564 130.66667"
   height="130.66667"
   width="564"
   xml:space="preserve"
   id="svg2"
   version="1.1"><metadata
     id="metadata8"><rdf:RDF><cc:Work
         rdf:about=""><dc:format>image/svg+xml</dc:format><dc:type
           rdf:resource="http://purl.org/dc/dcmitype/StillImage" /></cc:Work></rdf:RDF></metadata><defs
     id="defs6"><clipPath
       id="clipPath18"
       clipPathUnits="userSpaceOnUse"><path
         id="path16"
         d="M 0,98 H 423 V 0 H 0 Z" /></clipPath></defs><g
     transform="matrix(1.3333333,0,0,-1.3333333,0,130.66667)"
     id="g10"><g
       id="g12"><g
         clip-path="url(#clipPath18)"
         id="g14"><g
           transform="translate(48.98,63.1318)"
           id="g20"><path
             id="path22"
             style="fill:#fcfcfc;fill-opacity:1;fill-rule:nonzero;stroke:none"
             d="m 0,0 c 0,2.425 -0.657,4.511 -1.968,6.263 -1.315,1.751 -2.838,2.975 -4.57,3.664 -2.318,0.925 -4.574,1.437 -6.771,1.531 -2.2,0.099 -5.132,0.146 -8.797,0.146 h -3.818 v -25.751 h 6.369 c 3.775,0 6.892,0.232 9.341,0.693 2.452,0.464 4.503,1.385 6.164,2.771 1.425,1.232 2.46,2.704 3.093,4.416 C -0.319,-4.554 0,-2.464 0,0 m 22.972,0.492 c 0,-3.853 -0.677,-7.629 -2.027,-11.313 -1.346,-3.684 -3.279,-6.778 -5.782,-9.285 -3.437,-3.398 -7.267,-5.96 -11.49,-7.696 -4.22,-1.736 -9.483,-2.606 -15.769,-2.606 H -25.924 V -58.47 h -22.221 v 86.162 h 36.572 c 5.48,0 10.097,-0.473 13.856,-1.421 3.767,-0.945 7.09,-2.362 9.983,-4.251 3.475,-2.275 6.125,-5.188 7.959,-8.739 1.83,-3.547 2.747,-7.81 2.747,-12.789" /></g><path
           id="path24"
           style="fill:#fcfcfc;fill-opacity:1;fill-rule:nonzero;stroke:none"
           d="M 109.676,4.661 H 88.786 V 94.7 h 20.89 z" /><g
           transform="translate(170.8892,21.6582)"
           id="g26"><path
             id="path28"
             style="fill:#fcfcfc;fill-opacity:1;fill-rule:nonzero;stroke:none"
             d="m 0,0 v 13.498 c -2.814,-0.232 -5.861,-0.548 -9.14,-0.953 -3.279,-0.405 -5.767,-0.874 -7.463,-1.413 -2.086,-0.653 -3.676,-1.606 -4.779,-2.854 -1.098,-1.252 -1.649,-2.893 -1.649,-4.932 0,-1.346 0.118,-2.445 0.346,-3.286 0.237,-0.851 0.811,-1.658 1.74,-2.425 0.886,-0.768 1.948,-1.335 3.181,-1.7 1.236,-0.367 3.164,-0.548 5.79,-0.548 2.082,0 4.196,0.422 6.333,1.267 C -3.495,-2.499 -1.618,-1.386 0,0 m 0,-10.112 c -1.118,-0.85 -2.507,-1.869 -4.165,-3.067 -1.657,-1.196 -3.219,-2.14 -4.688,-2.834 -2.043,-0.928 -4.168,-1.613 -6.365,-2.054 -2.2,-0.445 -4.609,-0.665 -7.23,-0.665 -6.173,0 -11.341,1.909 -15.51,5.727 -4.164,3.817 -6.246,8.699 -6.246,14.639 0,4.747 1.055,8.62 3.184,11.632 2.114,3.006 5.125,5.38 9.022,7.117 3.858,1.735 8.64,2.971 14.352,3.703 5.708,0.732 11.631,1.271 17.76,1.622 v 0.347 c 0,3.586 -1.46,6.065 -4.397,7.435 -2.928,1.366 -7.25,2.055 -12.958,2.055 -3.436,0 -7.101,-0.61 -10.998,-1.823 -3.893,-1.216 -6.691,-2.153 -8.388,-2.806 h -1.909 v 15.678 c 2.201,0.578 5.778,1.267 10.734,2.054 4.956,0.792 9.924,1.189 14.899,1.189 11.844,0 20.398,-1.822 25.665,-5.471 5.266,-3.641 7.9,-9.361 7.9,-17.154 V -16.997 H 0 Z" /></g><g
           transform="translate(278.2217,4.6602)"
           id="g30"><path
             id="path32"
             style="fill:#fcfcfc;fill-opacity:1;fill-rule:nonzero;stroke:none"
             d="m 0,0 h -20.886 v 32.23 c 0,2.622 -0.137,5.24 -0.405,7.841 -0.275,2.607 -0.736,4.523 -1.394,5.759 -0.767,1.425 -1.897,2.468 -3.38,3.126 -1.489,0.653 -3.559,0.984 -6.22,0.984 -1.894,0 -3.815,-0.311 -5.759,-0.929 -1.948,-0.618 -4.062,-1.602 -6.337,-2.948 V 0 h -20.89 v 64.984 h 20.89 v -7.175 c 3.7,2.893 7.25,5.108 10.663,6.652 3.409,1.547 7.196,2.314 11.357,2.314 7.009,0 12.489,-2.043 16.437,-6.132 C -1.972,56.553 0,50.44 0,42.3 Z" /></g><g
           transform="translate(342.915,45.5127)"
           id="g34"><path
             id="path36"
             style="fill:#f84800;fill-opacity:1;fill-rule:nonzero;stroke:none"
             d="m 0,0 c -0.114,4.357 -1.197,7.636 -3.244,9.841 -2.043,2.196 -5.227,3.294 -9.545,3.294 -4.016,0 -7.314,-1.039 -9.896,-3.125 C -25.268,7.928 -26.716,4.594 -27.026,0 Z m 20.716,-12.21 h -47.684 c 0.307,-5.094 2.252,-8.986 5.814,-11.687 3.57,-2.701 8.829,-4.05 15.769,-4.05 4.401,0 8.659,0.791 12.788,2.369 4.13,1.583 7.393,3.279 9.783,5.094 H 19.5 v -16.722 c -4.704,-1.893 -9.144,-3.263 -13.309,-4.109 -4.169,-0.846 -8.778,-1.272 -13.828,-1.272 -13.041,0 -23.031,2.929 -29.978,8.794 -6.944,5.865 -10.416,14.214 -10.416,25.055 0,10.725 3.291,19.22 9.869,25.491 6.577,6.27 15.595,9.404 27.05,9.404 10.568,0 18.515,-2.673 23.841,-8.015 5.323,-5.345 7.987,-13.029 7.987,-23.062 z" /></g><g
           transform="translate(422.127,5.2334)"
           id="g38"><path
             id="path40"
             style="fill:#f84800;fill-opacity:1;fill-rule:nonzero;stroke:none"
             d="m 0,0 c -2.236,-0.575 -4.609,-1.027 -7.117,-1.354 -2.508,-0.327 -5.571,-0.493 -9.203,-0.493 -8.097,0 -14.123,1.642 -18.079,4.921 -3.956,3.275 -5.933,8.892 -5.933,16.839 V 50.29 h -8.565 v 14.119 h 8.565 v 18.575 h 20.891 V 64.409 H 0 V 50.29 H -19.441 V 27.228 c 0,-2.284 0.015,-4.272 0.062,-5.972 0.031,-1.701 0.347,-3.224 0.921,-4.578 0.54,-1.355 1.488,-2.425 2.854,-3.216 1.366,-0.791 3.358,-1.189 5.971,-1.189 1.079,0 2.492,0.232 4.239,0.693 1.748,0.465 2.973,0.889 3.665,1.275 l 1.729,0 z" /></g></g></g></g></svg>